<svg xmlns="http://www.w3.org/2000/svg" viewBox="15.765 79.368 519.46 195.973"><defs/><defs><radialGradient id="a" cx="90.11" cy="109.9" r="3.796" gradientTransform="translate(-7.624349 64.604553) scale(1.34205)" gradientUnits="userSpaceOnUse"><stop offset="0" stop-color="#375c6e"/><stop offset="1" stop-color="#15232a"/></radialGradient><radialGradient id="b" cx="331.953" cy="204.336" r="147.141" gradientTransform="matrix(1.16491 .35952 -.20242 .65587 -15.449175 -49.851497)" gradientUnits="userSpaceOnUse"><stop offset="0" stop-color="#405a67"/><stop offset="1" stop-color="#2d6885"/></radialGradient><radialGradient id="c" cx="397.444" cy="207.252" r="19.161" gradientTransform="matrix(.88035 0 0 .88035 46.789562 43.411552)" gradientUnits="userSpaceOnUse" spreadMethod="repeat"><stop offset="0" stop-color="#405a67"/><stop offset="1" stop-color="#192328"/></radialGradient><radialGradient id="d" cx="396.346" cy="207" r="11.129" gradientTransform="matrix(.57278 0 0 .57278 169.69603 107.138618)" gradientUnits="userSpaceOnUse"><stop offset="0" stop-color="#fbfcf8"/><stop offset="1" stop-color="#d2ddb0"/></radialGradient><radialGradient id="e" cx="60.586" cy="98.657" r="4.381" gradientTransform="translate(-7.624349 64.604553) scale(1.34205)" gradientUnits="userSpaceOnUse"><stop offset="0" stop-color="#375c6e"/><stop offset="1" stop-color="#15232a"/></radialGradient><radialGradient id="f" cx="115.26" cy="80.669" r="4.842" gradientTransform="translate(-7.624349 64.604553) scale(1.34205)" gradientUnits="userSpaceOnUse"><stop offset="0" stop-color="#375c6e"/><stop offset="1" stop-color="#15232a"/></radialGradient><radialGradient id="g" cx="64.229" cy="53.095" r="2.361" gradientTransform="translate(-7.624349 64.604553) scale(1.34205)" gradientUnits="userSpaceOnUse"><stop offset="0" stop-color="#375c6e"/><stop offset="1" stop-color="#15232a"/></radialGradient><radialGradient id="h" cx="108.729" cy="43.111" r="43.699" gradientTransform="translate(-7.624349 64.604553) scale(1.34205)" gradientUnits="userSpaceOnUse"><stop offset="0" stop-color="#375c6e"/><stop offset="1" stop-color="#15232a"/></radialGradient><radialGradient id="i" cx="103.828" cy="102.645" r="3.021" gradientTransform="translate(-7.624349 64.604553) scale(1.34205)" gradientUnits="userSpaceOnUse"><stop offset="0" stop-color="#375c6e"/><stop offset="1" stop-color="#15232a"/></radialGradient><radialGradient id="k" cx="72.295" cy="97.05" r="4.152" gradientTransform="translate(-7.624349 64.604553) scale(1.34205)" gradientUnits="userSpaceOnUse"><stop offset="0" stop-color="#375c6e"/><stop offset="1" stop-color="#15232a"/></radialGradient><radialGradient id="l" cx="75.736" cy="58.886" r="2.825" gradientTransform="translate(-7.624349 64.604553) scale(1.34205)" gradientUnits="userSpaceOnUse"><stop offset="0" stop-color="#375c6e"/><stop offset="1" stop-color="#15232a"/></radialGradient><radialGradient id="m" cx="82.405" cy="56.521" r="6.342" gradientTransform="translate(-7.624349 64.604553) scale(1.34205)" gradientUnits="userSpaceOnUse"><stop offset="0" stop-color="#375c6e"/><stop offset="1" stop-color="#15232a"/></radialGradient><radialGradient id="n" cx="91.839" cy="65.365" r="3.065" gradientTransform="translate(-7.624349 64.604553) scale(1.34205)" gradientUnits="userSpaceOnUse"><stop offset="0" stop-color="#375c6e"/><stop offset="1" stop-color="#15232a"/></radialGradient><radialGradient id="o" cx="95.164" cy="61.018" r="4.946" gradientTransform="translate(-7.624349 64.604553) scale(1.34205)" gradientUnits="userSpaceOnUse"><stop offset="0" stop-color="#375c6e"/><stop offset="1" stop-color="#15232a"/></radialGradient><radialGradient id="p" cx="104.337" cy="69.425" r="3.111" gradientTransform="translate(-7.624349 64.604553) scale(1.34205)" gradientUnits="userSpaceOnUse"><stop offset="0" stop-color="#375c6e"/><stop offset="1" stop-color="#15232a"/></radialGradient><radialGradient id="r" cx="115.242" cy="127.998" r="4.618" gradientTransform="translate(-7.624349 64.604553) scale(1.34205)" gradientUnits="userSpaceOnUse"><stop offset="0" stop-color="#375c6e"/><stop offset="1" stop-color="#15232a"/></radialGradient><radialGradient id="s" cx="105.081" cy="63.93" r="3.538" gradientTransform="translate(-7.624349 64.604553) scale(1.34205)" gradientUnits="userSpaceOnUse"><stop offset="0" stop-color="#375c6e"/><stop offset="1" stop-color="#15232a"/></radialGradient><linearGradient id="j" x1="334.422" x2="334.422" y1="187.922" y2="317.391" gradientTransform="matrix(1.03768 0 0 1.03768 -176.247235 -38.992859)" gradientUnits="userSpaceOnUse" spreadMethod="pad"><stop offset="0" stop-color="#405a67"/><stop offset="1" stop-color="#295f7a"/></linearGradient><linearGradient id="q" x1="334.422" x2="334.422" y1="187.922" y2="317.391" gradientTransform="matrix(1.03768 0 0 1.03768 -128.302665 -22.089008)" gradientUnits="userSpaceOnUse" spreadMethod="pad"><stop offset="0" stop-color="#405a67"/><stop offset="1" stop-color="#295f7a"/></linearGradient></defs><path fill="url(#a)" stroke="#fff" stroke-width=".1" d="M108.213 159.128s1.97.886 4.644.573l-9.083 94.948c0 .646.702-1.113 1.346-1.113.648 0-.909.854.483-.49l9.593-93.904c.566-.219 1.142-.498 1.722-.861.379-.237.895-.82 1.484-1.592l-7.65-3.046-2.539 5.485z" vector-effect="non-scaling-stroke"/><path d="M188.08 173.47h18.26v68.6h-18.26v-68.6zm67.648 0c10.853 0 19.57 2.453 26.15 7.36 6.58 4.9 9.87 13.797 9.87 26.69 0 23.033-11.547 34.55-34.64 34.55h-21.91v-68.6h20.53zm2.37 13.03h-4.64v42.54h4.74c5 0 8.7-1.58 11.1-4.74 2.4-3.153 3.6-8.747 3.6-16.78 0-5.527-.573-9.82-1.72-12.88-1.153-3.053-2.8-5.173-4.94-6.36-2.14-1.187-4.853-1.78-8.14-1.78zm114.231 55.57h-19.34l-3.06-14.02h-18.17l-3.05 14.02h-18.96l20.34-68.6h21.91l20.33 68.6zm-31.48-55.57l-6.22 28.53h12.43l-6.21-28.53zm105.543-13.03l-17.87 31.69 19.45 36.91h-19.84l-10.66-24.77-10.17 24.77h-19.34l18.75-36.42-17.37-32.18h19.64l8.69 20.83 9.47-20.83h19.25z" transform="matrix(1.09677 0 0 1 -8.3419981 2.05576205)" style="white-space:pre" fill="url(#b)" stroke="#fdfdfd" stroke-linejoin="round" stroke-width="4" paint-order="stroke" vector-effect="non-scaling-stroke"/><g fill-opacity=".97"><path fill="url(#c)" d="M413.548 225.988h-3.145c-1.54.078-4.683.449-4.683.449-5.994 1.284-7.957 4.672-8.573 8.702-.198 1.429-.323 2.869-.372 4.311v2.772h-.142l-.063-1.489v-1.283c-.036-1.444-.161-2.883-.372-4.311-.591-4.03-2.567-7.418-8.573-8.702 0 0-3.131-.371-4.684-.449h-3.131v-.14h3.131c1.553-.078 4.684-.437 4.684-.437 6.006-1.284 7.982-4.697 8.573-8.726.173-1.464.255-2.939.244-4.415v-1.283l.064-1.476h.141v2.759c.047 1.443.171 2.882.372 4.312.615 4.029 2.566 7.418 8.572 8.727 0 0 3.144.359 4.684.436h3.144z" transform="translate(96.331718 -59.770042)"/><path fill="url(#d)" d="M403.09 225.752h-1.188c-.582.029-1.769.17-1.769.17-2.266.485-3.008 1.765-3.24 3.287-.075.541-.122 1.085-.14 1.629v1.048h-.054l-.024-.562v-.486c-.014-.545-.061-1.088-.141-1.629-.223-1.522-.969-2.802-3.239-3.287 0 0-1.183-.141-1.77-.17h-1.183v-.053h1.183c.587-.029 1.77-.165 1.77-.165 2.27-.485 3.016-1.775 3.239-3.297.066-.553.097-1.111.093-1.669v-.484l.024-.558h.053v1.042c.018.546.065 1.089.141 1.63.232 1.522.969 2.803 3.238 3.298 0 0 1.188.135 1.77.164h1.188z" transform="translate(96.331718 -59.770042)"/></g><path fill="url(#e)" stroke="#fff" stroke-width=".1" d="M67.806 136.856c.589 1.31 1.356 2.302 1.891 3.265.849 1.528 2.63 2.003 4.316 2.072l-18.912 28.589c0 .646.629-.334 1.273-.334.649 0 .846.688.846.042l19.131-28.419c.918-.123 1.544-.289 1.544-.289l1.669-.654-5.773-7.531-5.985 3.259z" filter="none" vector-effect="non-scaling-stroke"/><path fill="none" d="M80.365 141.351l-2.315.907-.027.007s-.462.122-1.172.237v116.746c-.022.425-.213.905-.487 1.18-.275.275-.755.489-1.182.489-.424 0-.905-.214-1.179-.488-.275-.275-.468-.756-.49-1.181v-116.59c-1.614-.161-3.25-.646-4.253-2.294-.514-.932-1.291-1.943-1.91-3.303l-.192-.422 6.77-3.686zm-11.905-4.282c.53 1.063 1.118 1.815 1.674 2.809.695 1.408 2.268 1.755 3.899 1.815l.48.018v117.537c-.022.221.048.324.196.473.149.149.253.196.473.196.222 0 .326-.047.474-.195.148-.149.217-.253.195-.474V141.633l.434-.058c.887-.116 1.331-.238 1.455-.269l1.023-.401-5.109-6.664z"/><path fill="url(#f)" stroke="#fff" stroke-width=".1" d="M140.737 171.133l-.105 1.75c-.074.584-.083 1.155-.055 1.717l12.975-.078h.007l-.007-.002-12.815-3.387z" vector-effect="non-scaling-stroke"/><path fill="url(#g)" stroke="#fff" stroke-width=".1" d="M75.406 132.718l5.924 7.723.413-.162-3.698-8.998z" vector-effect="non-scaling-stroke"/><path fill="url(#h)" stroke="#fff" stroke-width=".1" d="M164.2230072 82.39900208l-5.84300232 24.18899536-31.18600464 15.38999939-31.83799743-.12599945-15.70700073 8.5550003 3.78799438 9.21000671 17.40000153-6.79400634 17.41000366 4.15100097 5.66799927 1.64700318 15.4280014 3.53900146 7.0289917 5.44699097-5.21099854 16.57501221-.30999756 5.10099792 13.01600647 3.43699646.63099671-3.62400818 5.68099975-13.14898681 13.54699707-18.64601136 18.60400391-40.63799286z" vector-effect="non-scaling-stroke"/><path fill="url(#i)" stroke="#fff" stroke-width=".1" d="M127.665 165.73s.767.028 1.868-.201l-9.26 34.016c-.115.446.441-.308 1.085-.308.649 0 1.222-.001 1.222-.647l9.291-33.883c1.197-.593 2.466-1.514 3.558-3.01.119-.159.23-.384.343-.634l-7.705.045-.402 4.622z" vector-effect="non-scaling-stroke"/><path d="M74.559 261.323h-18.26v-68.6h42.14l-1.87 12.93h-22.01v16.49h19.34v12.93h-19.34v26.25z" transform="matrix(1.08414 -.31087 .27564 .96126 -59.48163223 3.291579)" style="white-space:pre" fill="url(#j)" stroke="#fdfdfd" stroke-linejoin="round" stroke-width="4" paint-order="stroke" vector-effect="non-scaling-stroke"/><path fill="url(#k)" stroke="#fff" stroke-width=".1" d="M83.828 146.232s2.331 2.147 6.476 2.495l12.152 38.866c.102-.055.954-.339 1.116-.153.6.691.323.694.999 2.135l-11.928-40.847c.043-.001.077.002.118-.001.58-.056 1.343-.284 2.211-.626l-6.307-5.175-4.837 3.306z" vector-effect="non-scaling-stroke"/><path fill="url(#l)" stroke="#fff" stroke-width=".1" d="M90.227 141.857l6.604 5.417c.32-.156.641-.311.978-.485l-4.856-6.798-2.726 1.866z" vector-effect="non-scaling-stroke"/><path fill="url(#m)" stroke="#fff" stroke-width=".1" d="M100.27 134.988l-5.814 3.978 4.969 6.962c5.581-3.071 12.053-7.558 12.053-7.558l-11.208-3.382z" vector-effect="non-scaling-stroke"/><path fill="url(#n)" stroke="#fff" stroke-width=".1" d="M111.515 151.992l7.974 3.174c.083-.123.169-.255.254-.383l-7.068-5.294-1.16 2.503z" vector-effect="non-scaling-stroke"/><path fill="url(#o)" d="M113.454 147.804l7.273 5.449c2.852-4.557 6.001-10.478 6.001-10.478l-9.541-3.039-3.733 8.068z"/><path fill="url(#p)" stroke="#fff" stroke-width=".1" d="M128.226 159.291l8.14-.048c.073-.272.141-.549.209-.846l-8.083-2.135-.266 3.029z" vector-effect="non-scaling-stroke"/><path d="M141.036 277.273l-13.43-25.27h-5.03v25.27h-18.26v-68.6h23.79c9.673 0 16.893 1.743 21.66 5.23 4.773 3.493 7.16 8.857 7.16 16.09 0 4.347-1.003 7.967-3.01 10.86-2.007 2.893-5.217 5.493-9.63 7.8l17.08 28.62h-20.33zm-18.46-55.86v18.16h6.12c6.313 0 9.47-3.193 9.47-9.58 0-2.96-.87-5.13-2.61-6.51-1.747-1.38-4.363-2.07-7.85-2.07h-5.13z" transform="matrix(-1.08771 -.1918 -.17365 .9848 327.03216553 13.07528782)" style="white-space:pre" fill="url(#q)" stroke="#fdfdfd" stroke-linejoin="round" stroke-width="4" paint-order="stroke" vector-effect="non-scaling-stroke"/><path fill="url(#r)" stroke="#fff" stroke-width=".1" d="M144.189 183.063c.744.981 1.66 1.617 2.589 2.055l2.735 39.193c.658.156.651.122 1.088.231.437.109.769.197 1.145.255l-2.628-38.944c1.376.229 2.434.125 2.434.125l1.681-9.638-12.394.071c.651 2.914 2.331 5.318 3.35 6.652z" vector-effect="non-scaling-stroke"/><path fill="url(#s)" stroke="#fff" stroke-width=".1" d="M128.651 154.426l8.285 2.188c.759-4.124 1.211-9.078 1.211-9.078l-8.605-3.345-.891 10.235z" vector-effect="non-scaling-stroke"/></svg>